PathFileType	4	(X/Y/Z)	C:/Users/opensim2020/Desktop/walking_exp_matlab/subject06_walking22_straight_03.trc																																																																																																																																		
DataRate	CameraRate	NumFrames	NumMarkers	Units	OrigDataRate	OrigDataStartFrame	OrigNumFrames																																																																																																																														
100	100	8	44	mm	100	1703	77																																																																																																																														
Frame#	Time	LFHD			RFHD			LBHD			RBHD			C7			T10			CLAV			STRN			RBAK			LSHO			LUPA			LELB			LFRM			LWRA			LWRB			LFIN			RSHO			RUPA			RELB			RFRM			RWRA			RWRB			RFIN			LASI			RASI			LPSI			RPSI			LTHI			LKNE			LTIB			LANK			LHEE			LTOE			RTHI			RKNE			RTIB			RANK			RHEE			RTOE			*39			*40			*41			*42			*43		
		X1	Y1	Z1	X2	Y2	Z2	X3	Y3	Z3	X4	Y4	Z4	X5	Y5	Z5	X6	Y6	Z6	X7	Y7	Z7	X8	Y8	Z8	X9	Y9	Z9	X10	Y10	Z10	X11	Y11	Z11	X12	Y12	Z12	X13	Y13	Z13	X14	Y14	Z14	X15	Y15	Z15	X16	Y16	Z16	X17	Y17	Z17	X18	Y18	Z18	X19	Y19	Z19	X20	Y20	Z20	X21	Y21	Z21	X22	Y22	Z22	X23	Y23	Z23	X24	Y24	Z24	X25	Y25	Z25	X26	Y26	Z26	X27	Y27	Z27	X28	Y28	Z28	X29	Y29	Z29	X30	Y30	Z30	X31	Y31	Z31	X32	Y32	Z32	X33	Y33	Z33	X34	Y34	Z34	X35	Y35	Z35	X36	Y36	Z36	X37	Y37	Z37	X38	Y38	Z38	X39	Y39	Z39	X40	Y40	Z40	X41	Y41	Z41	X42	Y42	Z42	X43	Y43	Z43	X44	Y44	Z44
																																																																																																																																					
20	0.19	-281.75842	1628.21655	1358.37756	-269.18707	1627.26404	1490.17639	-416.3934	1581.05505	1375.11731	-402.75998	1584.57581	1504.0354	-418.67957	1429.99304	1434.97266	-471.39304	1102.5293	1445.57178	-312.4682	1345.99585	1432.57703	-281.57153	1171.20911	1434.83264	-500.33789	1269.11072	1524.58081	-375.47546	1377.99487	1272.95459	-442.62836	1192.76501	1199.29968	-487.17053	1090.38696	1185.96741	-520.70178	946.09174	1152.95007	-501.22794	813.27557	1177.1665	-565.0813	835.12744	1150.58936	-560.82397	744.41138	1140.8363	-350.43448	1388.00134	1592.7428	-389.6366	1202.82422	1699.9093	-373.55966	1085.71033	1724.50903	-316.81522	983.22711	1741.63879	-209.104	886.40662	1699.86731	-253.01027	862.12799	1744.3877	-184.29149	814.8949	1741.58533	-273.57407	945.67255	1356.3103	-313.07458	941.68213	1569.87524	-433.9429	969.95117	1356.31653	-458.80792	968.57806	1521.21863	-255.05719	646.44031	1281.15991	-194.399	497.56146	1314.39319	-185.78935	239.42062	1319.61072	-169.33434	68.61377	1363.23181	-210.09827	54.62281	1408.89551	-26.92238	45.19576	1371.32422	-419.72318	611.66296	1632.04724	-436.15814	484.29987	1626.13953	-645.42316	323.73679	1616.20911	-792.56836	214.34874	1572.06067	-822.40259	236.59036	1524.67297	-769.40399	54.6685	1570.38586	-373.96951	1675.81458	1423.55188	NaN	NaN	NaN	NaN	NaN	NaN	NaN	NaN	NaN	NaN	NaN	NaN
21	0.2	-266.56314	1630.1167	1357.09192	-254.36057	1629.61475	1489.01294	-401.16592	1582.69617	1373.53394	-387.89371	1586.62756	1502.547	-403.61938	1431.39075	1433.90771	-454.96188	1104.36829	1444.8479	-296.6391	1348.11304	1431.78772	-265.04477	1173.43262	1434.24768	-484.44528	1270.50208	1523.49292	-359.20554	1380.23547	1272.16101	-424.72189	1194.59851	1198.24927	-468.47781	1091.89038	1185.07056	-500.0076	946.86774	1152.63354	-478.82962	814.48346	1177.93738	-542.79834	835.22565	1150.62732	-537.05432	744.2674	1142.04993	-335.52374	1390.33081	1591.54529	-375.59348	1205.5802	1698.80212	-360.83539	1087.92737	1722.9906	-306.33142	984.02679	1740.54065	-200.5571	884.23773	1700.04114	-245.21953	861.21051	1744.21179	-177.79301	812.01147	1741.6803	-257.61359	948.13916	1354.55591	-296.36774	943.0661	1568.83191	-418.20792	971.93854	1356.39368	-442.09882	969.7691	1521.31079	-242.6451	646.84308	1280.23486	-183.18642	497.01697	1313.58484	-177.84222	238.75679	1319.76331	-168.26399	68.67625	1363.71924	-209.17801	55.15611	1409.34363	-25.80701	43.67945	1371.07068	-397.07449	611.1972	1631.68347	-409.83435	483.52615	1626.26416	-618.89142	327.06342	1616.65735	-769.42395	223.28212	1571.70679	-794.53009	248.39003	1522.81018	-763.78894	60.93632	1571.25159	-359.03122	1677.70813	1421.89478	NaN	NaN	NaN	NaN	NaN	NaN	NaN	NaN	NaN	NaN	NaN	NaN
22	0.21	-251.41867	1632.20862	1355.91528	-239.62581	1632.15759	1487.83484	-385.87656	1584.24451	1372.23401	-373.03058	1588.63464	1501.2771	-388.57385	1433.15063	1432.83765	-438.50247	1106.14038	1443.98291	-280.81561	1350.22717	1431.35986	-248.83765	1175.48096	1433.82813	-468.93777	1272.10229	1522.21533	-342.47214	1382.29858	1271.29614	-406.6824	1196.12292	1197.15649	-449.59225	1093.0155	1184.11194	-478.64203	947.23291	1152.19031	-455.90094	815.38727	1178.81311	-519.7431	834.87292	1150.69861	-512.50806	743.79736	1143.18298	-320.75439	1392.37915	1590.65076	-361.71283	1207.84766	1697.7511	-348.59384	1089.77051	1721.74243	-295.95605	984.48657	1739.76343	-192.46751	881.77454	1700.36194	-237.97798	859.96857	1744.08557	-171.8703	808.80603	1741.80066	-242.01576	950.1062	1353.04871	-280.33301	944.13861	1567.90466	-402.71768	973.86407	1356.04382	-425.50531	970.89929	1521.11584	-231.17273	646.33185	1280.11829	-172.88208	496.5647	1313.23303	-171.7003	237.86992	1319.86792	-167.05827	68.56797	1364.26721	-208.40631	55.42772	1409.53223	-24.81199	43.00387	1371.5011	-374.26108	610.92633	1631.10095	-383.00327	483.2276	1626.05115	-590.46027	328.46844	1616.828	-744.60339	230.95532	1571.06995	-766.32019	257.14218	1521.00745	-751.04883	68.10461	1573.30676	-344.40811	1679.61121	1420.2616	NaN	NaN	NaN	NaN	NaN	NaN	NaN	NaN	NaN	NaN	NaN	NaN
23	0.22	-236.33069	1634.37927	1354.83789	-224.85359	1634.85754	1486.79504	-370.68106	1585.87378	1371.07178	-358.0462	1590.73889	1500.08984	-372.60046	1435.1532	1431.55957	-422.66321	1108.10083	1443.08618	-265.18048	1352.30579	1430.8822	-233.0193	1177.34619	1433.45789	-453.68277	1273.93726	1520.79993	-325.66513	1384.26709	1270.41089	-388.18875	1197.29578	1196.02124	-430.31415	1093.76038	1182.93738	-456.83603	947.31232	1151.72986	-432.1058	816.08777	1179.66748	-495.89896	834.20105	1150.7019	-487.23108	743.16022	1144.24084	-306.11581	1394.24597	1590.18018	-348.09204	1209.66174	1696.76343	-336.39844	1091.22375	1720.71094	-286.08905	984.55072	1739.03833	-184.84412	878.97906	1700.51953	-231.16281	858.46936	1744.08398	-166.44931	805.27844	1741.74097	-226.79028	951.76917	1351.71484	-263.80283	945.57343	1567.87354	-387.37656	975.78351	1355.53198	-409.41232	971.93219	1520.95215	-219.53302	646.10468	1279.49182	-163.12006	496.12482	1313.05469	-167.13292	237.53915	1320.56348	-166.17621	68.62463	1364.82324	-207.99953	55.71497	1409.92297	-24.20504	42.47322	1372.60352	-351.36237	610.95978	1630.3623	-355.87866	483.3313	1625.78125	-561.76672	328.81421	1617.41577	-719.83612	237.98599	1569.90942	-742.4931	263.84528	1519.46301	-726.05609	75.88781	1575.61621	-329.76547	1681.62476	1418.85864	NaN	NaN	NaN	NaN	NaN	NaN	NaN	NaN	NaN	NaN	NaN	NaN
24	0.23	-221.15834	1636.67969	1353.97314	-209.97368	1637.58191	1485.9585	-355.39056	1587.76855	1370.09949	-343.03717	1593.02344	1498.9873	-357.39648	1437.65369	1430.75183	-406.80411	1110.10742	1442.15723	-249.70345	1354.48035	1430.61377	-217.49533	1179.1969	1433.08545	-438.57996	1275.96594	1519.06653	-308.62979	1386.14636	1269.52747	-369.35413	1198.21045	1194.82458	-410.44577	1094.18774	1181.72925	-434.47787	947.05536	1151.23694	-407.85995	816.54669	1180.6886	-471.45639	833.28851	1150.69421	-460.92441	742.40735	1145.23621	-291.56781	1396.01575	1589.92188	-334.79483	1210.98901	1695.93872	-324.297	1092.32959	1719.78589	-276.64392	984.29913	1738.55859	-177.78401	875.93372	1700.71826	-224.96254	856.78125	1743.9303	-161.63863	801.69989	1741.82068	-211.73315	953.40161	1350.40674	-247.81828	947.10638	1567.48962	-372.26483	977.83008	1354.86755	-393.76273	973.1394	1520.60596	-207.71967	646.28455	1279.79028	-154.26888	495.88718	1312.97949	-163.97755	238.00391	1320.69763	-165.9016	68.74448	1365.19946	-207.96222	55.88126	1410.13574	-23.93671	42.25054	1372.90051	-328.27252	611.38092	1629.48499	-328.82126	483.95523	1625.11133	-534.57587	329.75296	1617.69592	-694.5824	244.09848	1568.59827	-720.38068	268.07938	1519.06421	-692.03027	81.88094	1577.15906	-314.91003	1683.77649	1417.6178	NaN	NaN	NaN	NaN	NaN	NaN	NaN	NaN	NaN	NaN	NaN	NaN
25	0.24	-205.84685	1639.05493	1353.30676	-194.85957	1640.30603	1485.34485	-340.04697	1589.82959	1369.16211	-328.05893	1595.42688	1498.198	-342.11725	1440.23975	1429.74622	-391.33701	1112.15637	1441.23987	-234.34386	1356.65027	1430.43237	-202.3313	1181.13879	1432.73523	-423.72565	1278.0271	1517.1759	-291.66022	1388.10156	1268.68274	-350.10504	1198.96191	1193.55969	-389.56088	1094.31384	1180.64111	-411.50778	946.6532	1150.7052	-383.00299	816.95099	1181.86108	-446.22171	832.22015	1150.68018	-433.97275	741.67523	1146.02185	-277.0336	1397.77112	1589.84912	-321.73425	1212.13	1695.09534	-312.24829	1093.27856	1718.83618	-267.51605	983.99188	1737.9679	-171.28668	872.89703	1700.9375	-219.26543	855.13141	1743.87756	-157.67691	798.12488	1741.96338	-197.04045	955.01703	1349.35962	-232.10342	948.80914	1566.92285	-357.39932	980.00159	1354.13977	-378.59738	974.64301	1520.34302	-196.11221	647.38916	1279.42322	-146.265	495.79224	1312.8501	-161.59277	238.55054	1320.69824	-165.51064	68.93222	1365.40527	-208.1035	56.04107	1410.15381	-24.01245	42.10489	1372.77856	-304.98843	612.40149	1628.37061	-301.617	485.16907	1623.94287	-507.99402	332.80215	1616.4519	-667.19617	247.78328	1568.19165	-696.60968	269.80984	1519.84473	-655.16541	86.00903	1577.51331	-299.88559	1686.07007	1416.61609	NaN	NaN	NaN	NaN	NaN	NaN	NaN	NaN	NaN	NaN	NaN	NaN
26	0.25	-190.50308	1641.55481	1352.81091	-180.35765	1642.83105	1484.55786	-324.61798	1592.19604	1368.34631	-313.00061	1597.95715	1497.39319	-326.27332	1442.63635	1429.02515	-375.88617	1114.297	1440.25562	-219.09665	1358.94897	1430.41833	-187.38168	1183.22925	1432.26489	-408.90506	1280.10376	1515.20911	-274.96042	1390.16541	1268.05005	-330.43329	1199.5896	1192.46423	-368.72757	1094.50269	1179.23877	-387.63116	946.20477	1150.21936	-357.68079	817.29407	1183.1897	-420.33133	831.31439	1150.6228	-406.14648	740.86353	1147.02441	-262.45404	1399.547	1589.86206	-308.90527	1213.38757	1694.13953	-300.41638	1094.25061	1717.81799	-258.69617	983.70056	1737.16125	-165.49429	869.84058	1701.13428	-214.22115	853.57983	1743.64502	-154.45599	794.70624	1742.26001	-182.43738	956.88464	1348.22473	-216.52046	951.02722	1566.20508	-342.69971	982.20209	1353.56006	-363.40985	976.43341	1520.06567	-185.39021	648.8905	1279.3689	-139.01659	495.74133	1312.55933	-159.61101	239.06464	1320.7124	-165.52779	69.12926	1365.46362	-208.22284	56.13977	1410.14832	-24.07306	42.05297	1372.74597	-281.54871	614.05548	1627.01697	-274.2226	487.11032	1622.30432	-479.50809	335.74014	1614.68152	-637.52887	247.8983	1569.02942	-669.84369	269.26166	1520.9989	-617.76007	88.20849	1577.46924	-284.74252	1688.5249	1415.85266	NaN	NaN	NaN	NaN	NaN	NaN	NaN	NaN	NaN	NaN	NaN	NaN
27	0.26	-175.10857	1644.11719	1352.48743	-165.09352	1645.36755	1484.38464	-309.28345	1594.8219	1367.80664	-297.93509	1600.55371	1496.80725	-310.82593	1445.13757	1428.18799	-360.87173	1116.69202	1439.36499	-204.05859	1361.29126	1430.41382	-172.57307	1185.57043	1431.73523	-394.17929	1282.21899	1513.3335	-258.55289	1392.31628	1267.55176	-310.29477	1200.28162	1191.65625	-347.36139	1094.48621	1178.0896	-363.15311	945.80286	1149.89941	-331.70355	817.77399	1184.61243	-394.05252	830.35571	1150.36877	-377.54089	740.35541	1147.6405	-248.00499	1401.47559	1589.88965	-296.35129	1215.0354	1693.06421	-288.83472	1095.43884	1716.54565	-250.23788	983.60583	1736.21875	-161.05304	866.52295	1700.77734	-209.81348	852.31134	1743.37866	-152.09398	791.52704	1742.88867	-167.97169	958.93188	1347.24512	-201.10089	953.73303	1565.47534	-328.21036	984.51892	1353.23975	-348.24857	978.60577	1519.8894	-175.2989	650.41083	1279.28735	-132.25209	495.77887	1312.16272	-158.07262	239.36635	1321.29114	-165.55086	69.29973	1365.55505	-208.52908	56.38471	1410.32068	-24.16183	41.96085	1372.6449	-258.17807	616.36639	1625.57422	-246.79251	489.75195	1620.42749	-448.88513	336.56494	1613.73145	-606.93835	245.98311	1569.50671	-641.37933	266.46136	1521.74561	-580.16577	88.31227	1577.19568	-269.46664	1691.12134	1415.31799	NaN	NaN	NaN	NaN	NaN	NaN	NaN	NaN	NaN	NaN	NaN	NaN
